<?xml version="1.0" standalone="no"?>
<!DOCTYPE svg PUBLIC "-//W3C//DTD SVG 20010904//EN"
 "http://www.w3.org/TR/2001/REC-SVG-20010904/DTD/svg10.dtd">
<svg version="1.0" xmlns="http://www.w3.org/2000/svg"
 width="463.000000pt" height="463.000000pt" viewBox="0 0 463.000000 463.000000"
 preserveAspectRatio="xMidYMid meet">
<metadata>
Created by potrace 1.14, written by Peter Selinger 2001-2017
</metadata>
<g transform="translate(0.000000,463.000000) scale(0.100000,-0.100000)"
fill="#000000" stroke="none">
<path d="M2135 4624 c-321 -34 -579 -105 -841 -234 -638 -314 -1101 -909
-1243 -1600 -37 -177 -46 -273 -46 -480 1 -375 72 -684 235 -1016 314 -638
909 -1101 1600 -1243 177 -37 273 -46 480 -46 375 1 684 72 1016 235 638 314
1101 909 1243 1600 37 177 46 273 46 480 -1 375 -72 684 -235 1016 -309 629
-894 1089 -1575 1239 -147 32 -276 46 -455 50 -102 1 -203 1 -225 -1z m440
-109 c556 -65 1083 -350 1437 -776 328 -396 499 -846 515 -1359 21 -679 -271
-1333 -788 -1762 -396 -328 -846 -499 -1359 -515 -679 -21 -1333 271 -1762
788 -328 396 -499 846 -515 1359 -21 679 271 1333 788 1762 356 295 760 463
1229 511 94 10 339 5 455 -8z"/>
<path d="M2620 4364 c0 -9 5 -14 12 -12 18 6 21 28 4 28 -9 0 -16 -7 -16 -16z"/>
<path d="M2284 4328 c-23 -11 -44 -48 -44 -77 0 -26 36 -68 64 -75 27 -7 76 8
76 23 0 5 -17 7 -38 4 -57 -8 -86 29 -66 82 9 23 49 36 78 25 28 -10 40 -2 25
17 -13 15 -65 16 -95 1z"/>
<path d="M1912 4310 c-49 -20 -49 -94 0 -135 36 -30 67 -32 102 -4 72 57 -14
176 -102 139z m82 -39 c21 -23 18 -70 -5 -84 -45 -28 -103 30 -80 80 13 29 61
31 85 4z"/>
<path d="M2577 4245 c-24 -69 -23 -102 0 -72 15 18 52 135 45 141 -13 14 -22
2 -45 -69z"/>
<path d="M2815 4260 c3 -5 15 -10 25 -10 32 0 50 -11 50 -32 0 -17 -5 -18 -37
-12 -54 11 -74 8 -96 -14 -16 -16 -17 -23 -8 -41 9 -16 21 -21 51 -21 22 0 40
-4 40 -10 0 -23 22 -7 50 37 35 54 38 88 11 103 -25 13 -94 13 -86 0z m39 -76
c28 -11 5 -34 -33 -34 -42 0 -52 6 -44 26 5 14 49 19 77 8z"/>
<path d="M1603 4239 c-19 -6 -35 -18 -39 -31 -10 -33 27 -58 87 -58 27 0 49
-4 49 -10 0 -14 -35 -30 -65 -30 -15 0 -24 -4 -20 -10 16 -25 115 1 115 31 0
26 -42 49 -90 49 -36 0 -50 4 -50 14 0 15 21 26 52 26 11 0 18 5 16 12 -6 16
-18 18 -55 7z"/>
<path d="M3135 4141 c-39 -16 -58 -48 -52 -86 4 -22 2 -35 -5 -35 -7 0 -7 -4
1 -13 16 -20 2 -28 -23 -15 -19 10 -20 10 -7 -6 21 -25 57 -17 54 12 -3 20 0
22 25 16 15 -4 30 -7 34 -8 3 0 7 4 8 9 0 6 -7 12 -17 14 -28 5 -43 21 -43 46
0 50 80 68 123 27 24 -23 40 -21 30 4 -13 34 -84 53 -128 35z"/>
<path d="M1328 4123 c-44 -18 -54 -39 -31 -65 17 -19 28 -20 117 -5 6 1 11 -6
14 -15 2 -12 -6 -19 -28 -25 -35 -9 -41 -30 -7 -25 35 6 67 31 67 52 0 30 -39
44 -84 31 -69 -18 -89 7 -30 37 46 24 32 35 -18 15z"/>
<path d="M2176 4073 l-28 -5 23 -24 c21 -23 29 -24 138 -24 354 0 675 -98 976
-298 137 -91 356 -310 448 -447 199 -301 297 -620 297 -967 l0 -110 -31 6
c-17 3 -35 6 -40 6 -5 0 -9 42 -9 93 -1 517 -241 993 -659 1306 -257 191 -613
311 -930 311 l-63 0 173 -180 c415 -430 466 -487 504 -564 69 -138 58 -282
-32 -435 -52 -88 -139 -176 -205 -206 -144 -66 -362 -49 -540 41 -111 56 -90
85 372 527 l195 186 -95 98 c-53 54 -188 194 -302 311 l-206 213 -91 -16 c-82
-14 -94 -14 -114 0 -43 30 -99 14 -133 -39 -15 -22 -38 -38 -70 -50 -27 -10
-95 -42 -152 -72 -413 -213 -731 -631 -826 -1084 -9 -41 -21 -132 -28 -202
-12 -123 -13 -128 -35 -128 -22 0 -23 -3 -23 -75 0 -60 3 -75 15 -75 8 0 15
-2 15 -5 0 -14 -69 -157 -76 -158 -14 -3 -32 163 -33 293 -2 348 97 673 297
975 94 143 310 357 456 453 194 128 412 220 614 258 l93 18 -25 25 c-25 25
-27 25 -88 13 -470 -94 -902 -403 -1159 -829 -189 -312 -279 -719 -239 -1078
12 -108 39 -262 50 -290 5 -11 19 -51 31 -90 144 -455 515 -866 959 -1061 824
-363 1774 -61 2241 713 63 104 127 247 164 365 19 60 33 89 45 93 30 10 78 72
90 116 14 50 6 90 -28 149 -23 41 -25 53 -23 145 4 176 -24 376 -80 558 -187
612 -712 1087 -1339 1211 -155 31 -389 44 -494 29z m-221 -208 c22 -21 25 -33
25 -102 0 -131 4 -127 -109 -120 -88 5 -98 8 -118 32 -13 14 -23 37 -23 51 0
32 42 74 75 74 19 0 25 5 25 20 0 29 44 70 75 70 14 0 37 -11 50 -25z m-327
-387 c7 -7 12 -42 12 -85 l0 -73 -63 0 c-72 0 -107 18 -107 55 0 29 24 55 51
55 10 0 19 6 19 14 0 37 61 61 88 34z m509 -49 c83 -31 98 -80 84 -276 -6 -80
-12 -148 -15 -150 -2 -2 -73 1 -157 6 -172 13 -210 25 -241 82 -48 87 22 199
125 199 20 0 25 6 31 38 6 40 43 84 86 101 33 13 53 13 87 0z m-967 -1304 c0
-149 2 -175 15 -175 10 0 15 -10 15 -30 l0 -30 -75 0 -75 0 0 30 c0 23 4 30
20 30 19 0 20 7 20 145 0 138 -1 145 -20 145 -16 0 -20 7 -20 30 l0 30 60 0
60 0 0 -175z m2590 0 c0 -168 1 -175 20 -175 16 0 20 -7 20 -30 l0 -30 -60 0
c-55 0 -60 2 -60 23 -1 19 -2 20 -10 5 -17 -28 -74 -41 -116 -28 -48 16 -74
60 -74 128 0 64 21 114 57 133 37 20 97 17 122 -5 l21 -19 0 56 c0 54 -1 57
-25 57 -21 0 -25 5 -25 30 l0 30 65 0 65 0 0 -175z m-2420 125 c0 -39 -1 -40
-35 -40 -34 0 -35 1 -35 40 0 39 1 40 35 40 34 0 35 -1 35 -40z m-404 -130
c51 -119 73 -160 87 -160 13 0 17 -8 17 -35 l0 -35 -75 0 -75 0 0 35 c0 25 4
35 15 35 13 0 14 4 5 20 -9 17 -21 20 -75 20 -36 0 -65 -2 -65 -4 0 -2 -3 -11
-6 -20 -4 -11 -1 -16 10 -16 12 0 16 -10 16 -35 l0 -35 -75 0 -75 0 0 35 c0
27 4 35 18 35 12 0 30 30 64 108 67 151 65 142 34 142 -23 0 -26 4 -26 35 l0
35 68 0 69 0 69 -160z m1744 80 l0 -40 50 0 c49 0 50 -1 50 -30 0 -29 -1 -30
-50 -30 l-51 0 3 -66 c2 -52 7 -69 21 -78 15 -9 22 -7 37 12 15 18 23 21 44
12 23 -8 24 -12 14 -41 -20 -58 -122 -75 -169 -28 -16 16 -19 34 -19 104 0 78
-2 85 -20 85 -16 0 -20 7 -20 30 0 23 4 30 20 30 17 0 20 7 20 40 0 39 1 40
35 40 34 0 35 -1 35 -40z m-1009 -60 c26 -18 27 -18 43 -1 24 26 71 33 110 17
41 -17 56 -55 56 -142 0 -50 3 -64 15 -64 10 0 15 -10 15 -30 0 -30 -1 -30
-55 -30 l-55 0 0 89 c0 73 -3 93 -19 112 -19 23 -21 23 -48 9 -26 -14 -28 -21
-31 -83 -3 -62 -1 -67 18 -67 16 0 20 -6 20 -30 l0 -30 -60 0 -60 0 0 94 c0
95 -11 126 -44 126 -33 0 -48 -27 -53 -93 l-6 -67 32 0 c28 0 31 -3 31 -30 l0
-30 -85 0 -85 0 0 30 c0 23 4 30 20 30 18 0 20 7 20 75 0 68 -2 75 -20 75 -16
0 -20 7 -20 30 0 30 1 30 55 30 40 0 55 -4 55 -14 0 -11 8 -10 38 5 41 22 72
19 113 -11z m428 24 c18 -4 45 -20 62 -36 23 -24 29 -38 29 -74 l0 -44 -90 0
c-49 0 -90 -3 -90 -8 0 -4 7 -18 16 -30 20 -29 77 -30 97 -2 8 11 20 19 28 16
53 -16 51 -14 35 -44 -36 -69 -164 -78 -222 -15 -64 69 -29 207 59 232 42 12
40 12 76 5z m399 -30 c19 -22 22 -36 22 -105 0 -72 2 -79 20 -79 16 0 20 -7
20 -30 l0 -30 -75 0 -75 0 0 30 c0 20 5 30 15 30 12 0 15 14 15 70 0 58 -3 71
-19 80 -28 14 -38 13 -61 -10 -16 -16 -20 -33 -20 -80 0 -53 2 -60 20 -60 16
0 20 -7 20 -30 l0 -30 -75 0 -75 0 0 30 c0 20 5 30 15 30 12 0 15 15 15 75 0
68 -2 75 -20 75 -16 0 -20 7 -20 30 l0 30 60 0 c45 0 60 -4 60 -14 0 -11 8
-10 38 5 45 24 88 18 120 -17z m532 14 c29 -19 40 -53 40 -132 0 -56 4 -75 15
-80 24 -9 17 -36 -11 -47 -33 -12 -61 -4 -75 23 -11 20 -11 20 -32 0 -33 -29
-61 -35 -101 -18 -40 17 -55 52 -40 95 12 34 48 51 112 51 48 0 52 2 52 23 0
31 -18 47 -53 47 -20 0 -30 -6 -34 -20 -4 -15 -14 -20 -39 -20 -32 0 -33 1
-27 33 7 41 11 44 58 56 46 11 107 6 135 -11z m335 8 c45 -19 55 -42 55 -130
0 -69 2 -76 20 -76 16 0 20 -7 20 -30 l0 -30 -75 0 -75 0 0 30 c0 20 5 30 15
30 12 0 15 14 15 64 0 88 -27 116 -78 80 -19 -13 -22 -24 -22 -80 0 -50 3 -64
15 -64 10 0 15 -10 15 -30 l0 -30 -75 0 c-74 0 -75 0 -75 26 0 17 6 28 20 31
18 5 20 14 20 79 0 67 -2 74 -20 74 -16 0 -20 7 -20 30 l0 30 60 0 c49 0 60
-3 60 -17 0 -15 2 -15 18 -1 15 14 36 23 65 27 4 0 23 -5 42 -13z m682 -11
c58 -38 77 -139 39 -198 -55 -83 -207 -82 -250 2 -42 81 -1 192 79 214 31 9
106 -2 132 -18z m-2697 -90 c0 -87 3 -105 15 -105 10 0 15 -10 15 -30 l0 -30
-75 0 -75 0 0 30 c0 23 4 30 20 30 18 0 20 7 20 75 0 68 -2 75 -20 75 -16 0
-20 7 -20 30 l0 30 60 0 60 0 0 -105z m1181 -355 c53 -122 72 -156 88 -158 17
-3 21 -11 21 -38 l0 -34 -80 0 -80 0 0 35 c0 24 5 35 15 35 17 0 18 2 9 24 -5
12 -21 16 -70 16 -53 0 -65 -3 -74 -20 -9 -17 -8 -20 10 -20 16 0 20 -6 20
-35 l0 -35 -80 0 -80 0 0 34 c0 27 4 35 21 38 16 2 33 31 74 123 53 120 53
120 29 123 -20 3 -24 9 -24 38 l0 35 66 -3 67 -3 68 -155z m-1692 63 c236
-630 841 -1053 1506 -1053 411 0 823 169 1118 458 44 42 108 115 145 162 36
47 70 90 76 95 20 19 144 270 171 348 25 70 30 77 54 77 50 0 56 -12 37 -72
-52 -161 -153 -355 -261 -499 -87 -117 -283 -303 -402 -383 -236 -157 -470
-246 -740 -281 -417 -55 -825 42 -1188 283 -137 91 -356 310 -448 447 -100
151 -179 314 -223 461 l-13 44 68 0 68 0 32 -87z m403 -34 c15 -8 36 -74 27
-84 -2 -2 -16 -6 -30 -10 -23 -6 -27 -3 -33 19 -5 22 -12 26 -41 26 -58 0 -87
-75 -49 -128 21 -31 75 -27 89 6 17 38 83 24 71 -16 -11 -34 -56 -70 -96 -77
-57 -10 -126 23 -145 69 -36 86 1 181 81 206 31 9 98 3 126 -11z m268 5 c58
-23 84 -70 78 -140 -6 -65 -40 -108 -100 -125 -109 -29 -201 53 -183 162 16
95 109 141 205 103z m376 -18 c19 -22 22 -22 32 -6 19 31 75 43 116 26 45 -19
56 -46 56 -137 0 -55 3 -69 15 -69 10 0 15 -10 15 -30 0 -30 -1 -30 -55 -30
l-55 0 0 92 c0 93 -13 128 -47 128 -32 0 -53 -39 -53 -100 0 -53 2 -60 20 -60
16 0 20 -7 20 -30 l0 -30 -60 0 -60 0 0 100 c0 88 -2 100 -19 110 -48 25 -71
-2 -71 -86 0 -62 1 -64 25 -64 21 0 25 -5 25 -30 l0 -30 -85 0 -85 0 0 30 c0
23 4 30 20 30 18 0 20 7 20 75 0 68 -2 75 -20 75 -16 0 -20 7 -20 30 l0 30 60
0 c49 0 60 -3 60 -17 0 -14 2 -15 18 -1 39 35 95 32 128 -6z m1032 1 c21 -20
24 -20 33 -5 16 29 72 41 112 24 47 -19 57 -41 57 -129 0 -66 2 -75 20 -80 14
-3 20 -14 20 -31 0 -25 -2 -26 -60 -26 l-60 0 0 94 c0 95 -11 126 -44 126 -34
0 -50 -28 -54 -94 -4 -62 -3 -66 17 -66 17 0 21 -6 21 -30 0 -30 -1 -30 -55
-30 l-55 0 0 83 c0 117 -32 165 -81 121 -15 -13 -19 -31 -19 -81 0 -61 1 -63
25 -63 21 0 25 -5 25 -30 l0 -30 -85 0 c-85 0 -85 0 -85 26 0 17 6 28 20 31
18 5 20 14 20 78 0 64 -2 73 -20 78 -14 3 -20 14 -20 31 0 25 2 26 60 26 49 0
60 -3 60 -17 0 -14 2 -15 18 -1 38 34 91 32 130 -5z m489 8 c49 -32 70 -121
43 -185 -33 -81 -177 -102 -239 -36 -65 69 -34 209 52 235 41 13 114 5 144
-14z m193 -7 l0 -22 16 22 c11 16 25 22 54 22 45 0 46 -1 55 -62 l7 -48 -30 0
c-24 0 -31 5 -36 26 -5 19 -12 25 -29 22 -20 -3 -22 -9 -25 -75 -3 -72 -3 -73
23 -73 21 0 25 -5 25 -30 l0 -30 -85 0 -85 0 0 30 c0 23 4 30 20 30 18 0 20 7
20 75 0 68 -2 75 -20 75 -16 0 -20 7 -20 30 0 30 1 30 55 30 50 0 55 -2 55
-22z"/>
<path d="M3577 2082 c-23 -26 -22 -94 1 -115 46 -41 102 -6 102 64 0 61 -65
93 -103 51z"/>
<path d="M821 2123 c-8 -21 -16 -44 -18 -50 -4 -9 7 -13 37 -13 29 0 40 4 36
13 -2 6 -10 29 -17 50 -7 20 -15 37 -19 37 -3 0 -12 -17 -19 -37z"/>
<path d="M2032 2098 c-25 -25 -13 -38 33 -38 30 0 45 4 45 13 0 19 -21 37 -45
37 -12 0 -26 -5 -33 -12z"/>
<path d="M2916 1997 c-24 -17 -17 -51 11 -55 24 -4 67 32 60 51 -5 17 -49 20
-71 4z"/>
<path d="M3920 2090 c-22 -22 -27 -87 -10 -120 12 -23 55 -34 79 -20 25 13 44
70 35 104 -7 29 -39 56 -66 56 -10 0 -27 -9 -38 -20z m60 -36 c10 -11 11 -23
4 -42 -13 -36 -38 -35 -42 1 -6 52 13 72 38 41z"/>
<path d="M2421 1718 c-34 -84 -35 -78 9 -78 45 0 47 6 20 65 l-18 40 -11 -27z"/>
<path d="M1409 1671 c-34 -28 -34 -104 0 -132 30 -24 42 -24 75 2 21 16 26 29
26 62 0 48 -6 59 -37 76 -29 15 -37 14 -64 -8z"/>
<path d="M3282 1674 c-30 -21 -32 -104 -2 -134 25 -25 41 -25 74 1 21 17 26
29 26 65 0 71 -47 104 -98 68z"/>
<path d="M3503 4003 c10 -3 22 -16 27 -29 7 -18 17 -24 37 -23 16 1 21 3 11 6
-9 2 -24 15 -32 29 -10 14 -25 24 -39 23 -18 -1 -18 -2 -4 -6z"/>
<path d="M3469 3960 c27 -25 31 -33 21 -45 -11 -13 -16 -11 -42 10 -37 32 -70
40 -98 25 -31 -17 -22 -52 17 -70 18 -8 33 -21 33 -27 0 -7 6 -13 13 -13 20 0
107 59 114 77 7 19 -48 73 -74 73 -13 0 -9 -8 16 -30z m-45 -41 c34 -27 33
-39 -2 -39 -31 0 -68 32 -57 49 10 17 30 13 59 -10z"/>
<path d="M960 3940 c0 -6 24 -46 53 -90 48 -74 77 -99 77 -67 0 7 -6 19 -12
26 -11 10 -5 20 28 51 38 35 44 38 78 30 21 -4 39 -4 42 1 7 12 -3 15 -120 39
-110 22 -146 25 -146 10z m150 -41 c0 -8 -49 -49 -59 -49 -5 0 -51 65 -51 73
0 2 25 -1 55 -6 30 -6 55 -14 55 -18z"/>
<path d="M3599 3755 c-33 -18 -41 -38 -29 -69 23 -61 104 -84 154 -45 33 26
33 51 -1 89 -33 37 -85 47 -124 25z m103 -32 c53 -48 -28 -108 -85 -63 -15 12
-27 28 -27 35 0 41 76 60 112 28z"/>
<path d="M2547 2937 c-153 -150 -278 -275 -277 -279 0 -3 19 -13 43 -22 117
-43 269 -50 360 -16 132 50 258 256 244 399 -6 55 -61 181 -82 187 -5 2 -135
-119 -288 -269z"/>
<path d="M1952 425 c-36 -31 -48 -73 -32 -119 14 -44 48 -66 100 -66 61 0 100
41 100 105 0 38 -5 52 -29 76 -39 39 -96 40 -139 4z m114 -40 c23 -36 11 -93
-22 -105 -35 -14 -41 -13 -64 10 -22 22 -26 70 -10 101 16 29 75 26 96 -6z"/>
<path d="M2140 430 c0 -11 5 -20 10 -20 6 0 10 -28 10 -64 0 -36 -4 -68 -10
-71 -5 -3 -10 -13 -10 -21 0 -10 12 -14 45 -14 38 0 45 3 45 20 0 11 -7 20
-15 20 -11 0 -15 12 -15 46 0 55 4 53 71 -31 24 -30 49 -55 56 -55 10 0 13 23
13 85 0 50 4 85 10 85 6 0 10 9 10 20 0 17 -7 20 -45 20 -38 0 -45 -3 -45 -20
0 -11 7 -20 15 -20 11 0 15 -11 15 -42 l-1 -43 -55 63 c-39 43 -63 62 -80 62
-17 0 -24 -6 -24 -20z"/>
<path d="M2434 440 c-65 -26 -74 -142 -15 -187 19 -15 87 -17 96 -3 4 6 13 5
25 -2 24 -16 26 -13 33 50 l6 52 -44 0 c-32 0 -45 -4 -45 -14 0 -8 10 -16 23
-18 l22 -3 -23 -23 c-55 -55 -123 30 -76 96 18 26 81 31 90 7 10 -25 34 -17
34 10 0 39 -70 58 -126 35z"/>
</g>
</svg>
